<svg width="80" height="80" viewBox="0 0 80 80" fill="none" xmlns="http://www.w3.org/2000/svg">
<g clip-path="url(#clip0_32_3)">
<path d="M38.932 74.809L38.9253 74.8132L38.8856 74.8377C38.8485 74.8605 38.7904 74.8958 38.713 74.9419C38.5582 75.034 38.3269 75.1686 38.0329 75.3308C37.4433 75.6563 36.6112 76.0877 35.6463 76.5098C33.646 77.3849 31.3539 78.094 29.5079 77.9898C21.9175 77.561 16.039 71.2974 11.9521 63.0963C7.9059 54.977 6.00002 45.6816 6 40.6064C5.99998 35.3084 7.30308 30.3639 10.0122 26.7951C12.6625 23.3038 16.7887 20.9474 22.9218 20.9474C29.4671 20.9474 33.1185 21.8119 35.2488 22.5996C36.3148 22.9937 37.0427 23.3833 37.6464 23.7073L37.6882 23.7297C37.9638 23.8777 38.2922 24.054 38.604 24.187C38.9378 24.3294 39.4231 24.5 40 24.5C40.5795 24.5 41.0643 24.3277 41.3951 24.1862C41.6836 24.0628 41.9949 23.8985 42.2581 23.7595C42.2871 23.7442 42.3156 23.7292 42.3433 23.7146C42.9422 23.3992 43.6987 23.0089 44.84 22.6135C47.1352 21.8182 51.1526 20.9474 58.5 20.9474C64.1113 20.9474 68.0501 23.2637 70.6461 26.7639C73.2952 30.3356 74.63 35.2697 74.63 40.5C74.63 45.6451 72.8013 54.9673 68.7733 63.087C64.7124 71.2732 58.7803 77.5571 50.8905 77.9896L50.8827 77.99L50.8749 77.9905C48.8519 78.1173 46.4544 77.3976 44.4129 76.5226C43.4227 76.0981 42.5754 75.6633 41.9774 75.3353C41.6792 75.1717 41.4454 75.0361 41.2893 74.9433C41.2113 74.897 41.1529 74.8614 41.1157 74.8386L41.0763 74.8142L41.0701 74.8103L41.0695 74.81L41.069 74.8097L41.0689 74.8096L41.0685 74.8093L40.0014 74.1335L38.9334 74.8081L38.933 74.8084L38.9328 74.8085L38.9325 74.8087L38.932 74.809Z" stroke="#2E2A28" stroke-width="4"/>
<path d="M21.6841 12.8835C27.0139 17.4144 38.7367 17.8947 38.7367 17.8947C38.7367 17.8947 36.3225 7.34947 33.0525 3.48754C28.7817 -1.55651 16.6315 0.355544 16.6315 0.355544C16.6315 0.355544 17.263 9.12514 21.6841 12.8835Z" fill="#2E2A28"/>
<path fill-rule="evenodd" clip-rule="evenodd" d="M46.3242 1.61427C47.1768 2.31662 47.2985 3.57708 46.5961 4.4296C43.3837 8.32888 42.221 13.1363 41.8955 17.0987C41.734 19.0648 41.7825 20.778 41.8712 21.9948C41.9154 22.602 41.9693 23.0821 42.0111 23.4041C42.032 23.565 42.0498 23.6862 42.0618 23.7637C42.0678 23.8025 42.0723 23.8303 42.075 23.8467L42.0776 23.8623C42.0775 23.8617 42.0774 23.8611 40.1082 24.2105C38.1389 24.5599 38.1388 24.5592 38.1387 24.5585L38.1384 24.5568L38.1376 24.5524L38.1355 24.5404L38.1292 24.5028C38.124 24.4718 38.1171 24.429 38.1087 24.3749C38.092 24.2668 38.0696 24.1135 38.0443 23.9188C37.9939 23.5298 37.9319 22.9746 37.8817 22.2854C37.7815 20.9093 37.7271 18.9848 37.9089 16.7712C38.2701 12.3745 39.5796 6.65564 43.5089 1.88619C44.2113 1.03367 45.4717 0.911929 46.3242 1.61427Z" fill="#2E2A28"/>
</g>
<defs>
<clipPath id="clip0_32_3">
<rect width="80" height="80" fill="white"/>
</clipPath>
</defs>
</svg>
