<svg width="80" height="80" viewBox="0 0 80 80" fill="none" xmlns="http://www.w3.org/2000/svg">
<path d="M21.6841 12.8835C27.0139 17.4144 38.7367 17.8947 38.7367 17.8947C38.7367 17.8947 36.3225 7.34947 33.0525 3.48754C28.7817 -1.55651 16.6315 0.355544 16.6315 0.355544C16.6315 0.355544 17.263 9.12514 21.6841 12.8835Z" fill="#00D158"/>
<path d="M46.5962 4.42961C47.2985 3.57709 47.1768 2.31662 46.3243 1.61428C45.4718 0.911934 44.2113 1.03367 43.5089 1.88619L46.5962 4.42961ZM40.1082 24.2105C42.0775 23.8611 42.0776 23.8617 42.0777 23.8623C42.0777 23.8624 42.0778 23.8629 42.0778 23.8632C42.0779 23.8637 42.078 23.864 42.078 23.8641C42.078 23.8644 42.0779 23.8639 42.0777 23.8627C42.0773 23.8603 42.0764 23.8549 42.075 23.8467C42.0723 23.8303 42.0678 23.8025 42.0618 23.7638C42.0498 23.6862 42.032 23.565 42.0111 23.4041C41.9693 23.0821 41.9154 22.602 41.8712 21.9948C41.7826 20.778 41.734 19.0648 41.8955 17.0987C42.2211 13.1363 43.3838 8.32888 46.5962 4.42961L43.5089 1.88619C39.5796 6.65564 38.2702 12.3745 37.909 16.7712C37.7271 18.9848 37.7815 20.9093 37.8817 22.2854C37.9319 22.9746 37.9939 23.5298 38.0444 23.9188C38.0696 24.1135 38.0921 24.2668 38.1088 24.3749C38.1171 24.429 38.1241 24.4718 38.1292 24.5028C38.1318 24.5183 38.1339 24.5308 38.1356 24.5404C38.1364 24.5451 38.1371 24.5492 38.1377 24.5524C38.1379 24.5541 38.1382 24.5555 38.1384 24.5568C38.1385 24.5574 38.1387 24.5582 38.1387 24.5585C38.1389 24.5592 38.139 24.5599 40.1082 24.2105Z" fill="#2E2A28"/>
<path d="M29.3951 79.0392C34.0626 79.3029 40 75.5526 40 75.5526C40 75.5526 46 79.3526 51 79.0392C69 78.0526 76.63 50.4926 76.63 39.5526C76.63 28.4826 71 18 58.5 18C43.5 18 41.4938 21.5526 40 21.5526C38.5062 21.5526 36.3663 18 22.9218 18C9.47737 18 3.99995 28.4829 4 39.6591C4.00005 50.4886 11.9671 78.0547 29.3951 79.0392Z" fill="#2E2A28"/>
</svg>
