<svg width="80" height="80" viewBox="0 0 80 80" fill="none" xmlns="http://www.w3.org/2000/svg">
<path d="M36.5781 68.7812C32.3333 68.7812 28.7005 67.8958 25.6797 66.125C22.6849 64.3542 20.3802 61.8411 18.7656 58.5859C17.151 55.3047 16.3438 51.4115 16.3438 46.9062C16.3438 43.3646 16.7604 39.8359 17.5938 36.3203C18.4271 32.7786 19.6641 29.4453 21.3047 26.3203C22.9714 23.1693 25.0417 20.3828 27.5156 17.9609C29.9896 15.513 32.8672 13.5859 36.1484 12.1797C39.4557 10.7734 43.1536 10.0703 47.2422 10.0703C49.9505 10.0703 52.4245 10.3307 54.6641 10.8516C56.9297 11.3724 59.0521 12.1667 61.0312 13.2344L58.4141 18.7422C56.9036 17.9349 55.237 17.2708 53.4141 16.75C51.6172 16.2031 49.5599 15.9297 47.2422 15.9297C44.0391 15.9297 41.1615 16.5156 38.6094 17.6875C36.0573 18.8333 33.8177 20.4219 31.8906 22.4531C29.9896 24.4583 28.401 26.776 27.125 29.4062C25.875 32.0365 24.9245 34.8359 24.2734 37.8047C23.6484 40.7474 23.3359 43.7292 23.3359 46.75C23.3359 51.75 24.599 55.7083 27.125 58.625C29.6771 61.5156 33.2057 62.9609 37.7109 62.9609C39.9766 62.9609 42.1641 62.7396 44.2734 62.2969C46.4089 61.8542 48.4792 61.2943 50.4844 60.6172V66.3984C48.4531 67.1276 46.3568 67.7005 44.1953 68.1172C42.0599 68.5599 39.5208 68.7812 36.5781 68.7812Z" fill="#00D158"/>
<path d="M25.6797 66.125L23.6438 69.5681L23.6503 69.572L23.6568 69.5758L25.6797 66.125ZM18.7656 58.5859L15.1766 60.352L15.1822 60.3633L18.7656 58.5859ZM17.5938 36.3203L21.4859 37.2429L21.4874 37.2365L17.5938 36.3203ZM21.3047 26.3203L17.7688 24.4501L17.7631 24.461L21.3047 26.3203ZM27.5156 17.9609L30.3138 20.8193L30.3214 20.8118L30.329 20.8043L27.5156 17.9609ZM36.1484 12.1797L34.5833 8.49861L34.5728 8.50311L36.1484 12.1797ZM54.6641 10.8516L53.758 14.7476L53.7679 14.7499L54.6641 10.8516ZM61.0312 13.2344L64.6441 14.9511L66.2752 11.5184L62.9304 9.71398L61.0312 13.2344ZM58.4141 18.7422L56.5286 22.2699L60.2271 24.2467L62.0269 20.4589L58.4141 18.7422ZM53.4141 16.75L52.2494 20.5767L52.2822 20.5867L52.3152 20.5961L53.4141 16.75ZM38.6094 17.6875L40.2477 21.3366L40.2632 21.3296L40.2785 21.3226L38.6094 17.6875ZM31.8906 22.4531L28.9888 19.7001L28.9878 19.7011L31.8906 22.4531ZM27.125 29.4062L23.5262 27.6603L23.5191 27.6748L23.5122 27.6893L27.125 29.4062ZM24.2734 37.8047L20.3663 36.9479L20.3635 36.9608L20.3607 36.9737L24.2734 37.8047ZM27.125 58.625L24.1014 61.2437L24.1138 61.2581L24.1264 61.2724L27.125 58.625ZM44.2734 62.2969L43.4614 58.3801L43.4518 58.3822L44.2734 62.2969ZM50.4844 60.6172H54.4844V55.0447L49.2047 56.8274L50.4844 60.6172ZM50.4844 66.3984L51.8358 70.1632L54.4844 69.2125V66.3984H50.4844ZM44.1953 68.1172L43.4382 64.1895L43.4107 64.1948L43.3833 64.2005L44.1953 68.1172ZM36.5781 64.7812C32.8937 64.7812 29.9917 64.0161 27.7026 62.6742L23.6568 69.5758C27.4093 71.7755 31.773 72.7812 36.5781 72.7812V64.7812ZM27.7156 62.6819C25.4174 61.323 23.6359 59.403 22.349 56.8086L15.1822 60.3633C17.1245 64.2793 19.9524 67.3854 23.6438 69.5681L27.7156 62.6819ZM22.3547 56.8199C21.0659 54.2007 20.3438 50.9383 20.3438 46.9062H12.3438C12.3438 51.8846 13.2362 56.4086 15.1766 60.352L22.3547 56.8199ZM20.3438 46.9062C20.3438 43.6815 20.7228 40.4623 21.4859 37.2429L13.7016 35.3977C12.7981 39.2095 12.3438 43.0477 12.3438 46.9062H20.3438ZM21.4874 37.2365C22.246 34.0126 23.367 30.9972 24.8463 28.1796L17.7631 24.461C15.9611 27.8934 14.6082 31.5447 13.7001 35.4042L21.4874 37.2365ZM24.8405 28.1905C26.3197 25.3941 28.1441 22.9434 30.3138 20.8193L24.7174 15.1026C21.9393 17.8223 19.623 20.9445 17.7688 24.4501L24.8405 28.1905ZM30.329 20.8043C32.4371 18.7184 34.8919 17.0701 37.7241 15.8563L34.5728 8.50311C30.8424 10.1018 27.5421 12.3076 24.7022 15.1176L30.329 20.8043ZM37.7136 15.8608C40.4623 14.692 43.6178 14.0703 47.2422 14.0703V6.07031C42.6895 6.07031 38.4491 6.85487 34.5833 8.49862L37.7136 15.8608ZM47.2422 14.0703C49.6979 14.0703 51.8625 14.3068 53.758 14.7476L55.5701 6.95553C52.9865 6.35468 50.2032 6.07031 47.2422 6.07031V14.0703ZM53.7679 14.7499C55.6956 15.193 57.4793 15.8631 59.1321 16.7548L62.9304 9.71398C60.6248 8.47018 58.1638 7.55176 55.5602 6.95324L53.7679 14.7499ZM57.4184 11.5176L54.8012 17.0254L62.0269 20.4589L64.6441 14.9511L57.4184 11.5176ZM60.2996 15.2145C58.514 14.2601 56.58 13.4945 54.5129 12.9039L52.3152 20.5961C53.894 21.0472 55.2933 21.6097 56.5286 22.2699L60.2996 15.2145ZM54.5787 12.9233C52.3281 12.2383 49.8661 11.9297 47.2422 11.9297V19.9297C49.2537 19.9297 50.9063 20.1679 52.2494 20.5767L54.5787 12.9233ZM47.2422 11.9297C43.5438 11.9297 40.0848 12.6085 36.9402 14.0524L40.2785 21.3226C42.2381 20.4228 44.5343 19.9297 47.2422 19.9297V11.9297ZM36.971 14.0384C33.943 15.3979 31.2743 17.291 28.9888 19.7001L34.7925 25.2062C36.3611 23.5527 38.1716 22.2687 40.2477 21.3366L36.971 14.0384ZM28.9878 19.7011C26.7886 22.0208 24.9708 24.6825 23.5262 27.6603L30.7238 31.1522C31.8312 28.8696 33.1906 26.8958 34.7934 25.2051L28.9878 19.7011ZM23.5122 27.6893C22.1262 30.6058 21.0796 33.6951 20.3663 36.9479L28.1806 38.6615C28.7693 35.9768 29.6238 33.4671 30.7378 31.1232L23.5122 27.6893ZM20.3607 36.9737C19.6774 40.1907 19.3359 43.451 19.3359 46.75H27.3359C27.3359 44.0073 27.6194 41.3041 28.1862 38.6357L20.3607 36.9737ZM19.3359 46.75C19.3359 52.4212 20.7783 57.4067 24.1014 61.2437L30.1486 56.0063C28.4196 54.0099 27.3359 51.0788 27.3359 46.75H19.3359ZM24.1264 61.2724C27.5681 65.1706 32.2712 66.9609 37.7109 66.9609V58.9609C34.1402 58.9609 31.7861 57.8607 30.1236 55.9776L24.1264 61.2724ZM37.7109 66.9609C40.2386 66.9609 42.7021 66.7138 45.095 66.2116L43.4518 58.3822C41.6261 58.7653 39.7145 58.9609 37.7109 58.9609V66.9609ZM45.0854 66.2136C47.3744 65.7391 49.6011 65.1373 51.764 64.407L49.2047 56.8274C47.3572 57.4512 45.4433 57.9693 43.4614 58.3802L45.0854 66.2136ZM46.4844 60.6172V66.3984H54.4844V60.6172H46.4844ZM49.1329 62.6337C47.2991 63.2919 45.4017 63.811 43.4382 64.1895L44.9525 72.0449C47.3119 71.59 49.6071 70.9633 51.8358 70.1632L49.1329 62.6337ZM43.3833 64.2005C41.5891 64.5724 39.3359 64.7812 36.5781 64.7812V72.7812C39.7058 72.7812 42.5307 72.5474 45.0073 72.0339L43.3833 64.2005Z" fill="#00D158"/>
</svg>
