<svg width="80" height="80" viewBox="0 0 80 80" fill="none" xmlns="http://www.w3.org/2000/svg">
<path d="M20.148 30.1877L37.6093 7.15371C38.8097 5.57013 41.1903 5.57013 42.3907 7.15371L59.852 30.1877C61.3497 32.1634 59.9405 35 57.4612 35H55.5223C55.1062 35 54.8722 35.4785 55.1276 35.807L71.7341 57.1582C73.2668 59.1288 71.8625 62 69.3661 62H10.6339C8.13747 62 6.73319 59.1288 8.26586 57.1582L24.8724 35.807C25.1278 35.4785 24.8938 35 24.4777 35H22.5388C20.0595 35 18.6503 32.1634 20.148 30.1877Z" fill="#00D158"/>
<path d="M40 76V22" stroke="#2E2A28" stroke-width="4" stroke-linecap="round"/>
<path d="M40 57L34.1716 51.1716C33.4214 50.4214 33 49.404 33 48.3431V36" stroke="#2E2A28" stroke-width="4" stroke-linecap="round"/>
<path d="M40 45.5L45.8284 39.6716C46.5786 38.9214 47 37.904 47 36.8431V28" stroke="#2E2A28" stroke-width="4" stroke-linecap="round"/>
</svg>
