<svg width="80" height="80" viewBox="0 0 80 80" fill="none" xmlns="http://www.w3.org/2000/svg">
<path d="M21.7419 31.3959L39.2031 8.36192C39.6032 7.83406 40.3968 7.83406 40.7969 8.36192L58.2581 31.3959C58.7574 32.0545 58.2877 33 57.4612 33H55.5223C53.442 33 52.2717 35.3927 53.5489 37.0349L70.1554 58.3861C70.6663 59.0429 70.1982 60 69.3661 60H10.6339C9.80177 60 9.33368 59.0429 9.84456 58.3861L26.4511 37.0349C27.7283 35.3927 26.5581 33 24.4777 33H22.5388C21.7123 33 21.2426 32.0545 21.7419 31.3959Z" stroke="#2E2A28" stroke-width="4"/>
<path d="M40 76V22" stroke="#2E2A28" stroke-width="4" stroke-linecap="round"/>
<path d="M40 57L34.1716 51.1716C33.4214 50.4214 33 49.404 33 48.3431V36" stroke="#2E2A28" stroke-width="4" stroke-linecap="round"/>
<path d="M40 45.5L45.8284 39.6716C46.5786 38.9214 47 37.904 47 36.8431V28" stroke="#2E2A28" stroke-width="4" stroke-linecap="round"/>
</svg>
