<svg width="80" height="80" viewBox="0 0 80 80" fill="none" xmlns="http://www.w3.org/2000/svg">
<circle cx="40" cy="40" r="39" fill="#2E2A28" stroke="#2E2A28" stroke-width="2"/>
<path d="M38.5 37.5C31 33.49 26.4567 33.4418 18.5 36.5L23.9319 18.229C23.975 18.0842 24.0838 17.9654 24.2238 17.9084C32.0319 14.7324 36.3526 14.9779 43.6366 18.8073C43.8468 18.9178 43.9514 19.1634 43.8837 19.3911L38.5 37.5Z" fill="#00D158"/>
<path d="M46.7157 21C54.5098 25.01 59.2313 25.0582 67.5 22L61.8551 40.271C61.8103 40.4158 61.6997 40.5336 61.5586 40.5889C53.4394 43.7679 48.9489 43.5231 41.3763 39.692C41.16 39.5826 41.0522 39.3312 41.1237 39.0995L46.7157 21Z" fill="#00D158"/>
<path d="M32.25 58.7867C24.75 54.7767 20.2067 54.7285 12.25 57.7867L17.6819 39.5156C17.725 39.3708 17.8338 39.252 17.9738 39.1951C25.7819 36.0191 30.1026 36.2646 37.3866 40.094C37.5968 40.2045 37.7014 40.4501 37.6337 40.6777L32.25 58.7867Z" fill="#00D158"/>
<path d="M40.4657 42.2867C48.2598 46.2967 52.9813 46.3449 61.25 43.2867L55.6051 61.5577C55.5603 61.7024 55.4497 61.8203 55.3086 61.8756C47.1894 65.0546 42.6989 64.8098 35.1263 60.9787C34.91 60.8692 34.8022 60.6179 34.8737 60.3862L40.4657 42.2867Z" fill="#00D158"/>
</svg>
