<svg width="80" height="80" viewBox="0 0 80 80" fill="none" xmlns="http://www.w3.org/2000/svg">
<path d="M4 13C4 8.58172 7.58172 5 12 5H22C24.2091 5 26 6.79086 26 9V23C26 25.2091 24.2091 27 22 27H8C5.79086 27 4 25.2091 4 23V13Z" fill="#2E2A28"/>
<rect x="28" y="5" width="22" height="22" rx="4" fill="#00D158"/>
<path d="M52 9C52 6.79086 53.7909 5 56 5H66C70.4183 5 74 8.58172 74 13V23C74 25.2091 72.2091 27 70 27H56C53.7909 27 52 25.2091 52 23V9Z" fill="#2E2A28"/>
<rect x="4" y="29" width="22" height="22" rx="4" fill="#00D158"/>
<rect x="28" y="29" width="22" height="22" rx="4" fill="#00D158"/>
<rect x="52" y="29" width="22" height="22" rx="4" fill="#2E2A28"/>
<path d="M4 57C4 54.7909 5.79086 53 8 53H22C24.2091 53 26 54.7909 26 57V71C26 73.2091 24.2091 75 22 75H12C7.58172 75 4 71.4183 4 67V57Z" fill="#00D158"/>
<rect x="28" y="53" width="22" height="22" rx="4" fill="#00D158"/>
<path d="M52 57C52 54.7909 53.7909 53 56 53H70C72.2091 53 74 54.7909 74 57V67C74 71.4183 70.4183 75 66 75H56C53.7909 75 52 73.2091 52 71V57Z" fill="#00D158"/>
</svg>
