<svg width="80" height="80" viewBox="0 0 80 80" fill="none" xmlns="http://www.w3.org/2000/svg">
<path d="M21 6.5H11C7.96243 6.5 5.5 8.96243 5.5 12V22C5.5 23.933 7.067 25.5 9 25.5H21C22.933 25.5 24.5 23.933 24.5 22V10C24.5 8.067 22.933 6.5 21 6.5Z" stroke="#2E2A28" stroke-width="3"/>
<rect x="28" y="5" width="22" height="22" rx="4" fill="#2E2A28"/>
<path d="M67 6.5H57C55.067 6.5 53.5 8.067 53.5 10V22C53.5 23.933 55.067 25.5 57 25.5H69C70.933 25.5 72.5 23.933 72.5 22V12C72.5 8.96243 70.0376 6.5 67 6.5Z" stroke="#2E2A28" stroke-width="3"/>
<rect x="4" y="29" width="22" height="22" rx="4" fill="#2E2A28"/>
<rect x="28" y="29" width="22" height="22" rx="4" fill="#2E2A28"/>
<rect x="53.5" y="30.5" width="19" height="19" rx="3.5" stroke="#2E2A28" stroke-width="3"/>
<path d="M4 57C4 54.7909 5.79086 53 8 53H22C24.2091 53 26 54.7909 26 57V71C26 73.2091 24.2091 75 22 75H12C7.58172 75 4 71.4183 4 67V57Z" fill="#2E2A28"/>
<rect x="28" y="53" width="22" height="22" rx="4" fill="#2E2A28"/>
<path d="M52 57C52 54.7909 53.7909 53 56 53H70C72.2091 53 74 54.7909 74 57V67C74 71.4183 70.4183 75 66 75H56C53.7909 75 52 73.2091 52 71V57Z" fill="#2E2A28"/>
</svg>
